<svg xmlns="http://www.w3.org/2000/svg" width="28" height="56" viewBox="0 0 28 56">
  <g id="Choose_From_Kids_2_color" data-name="Choose From Kids 2 color" transform="translate(-17426.5 -2442.5)">
    <rect id="Rectangle_2977" data-name="Rectangle 2977" width="28" height="28" transform="translate(17426.5 2442.5)" fill="none"/>
    <rect id="Rectangle_2978" data-name="Rectangle 2978" width="28" height="28" transform="translate(17426.5 2470.5)" fill="none"/>
    <path id="Path_652" data-name="Path 652" d="M50.551,18a.542.542,0,0,0,.519-.389l.258-.88,2.054-2.971.475.216.233.463a1.148,1.148,0,0,0,1.692.419l1.566-1.116,1.332.7a.541.541,0,0,0,.769-.642,8.031,8.031,0,0,0-1.409-2.424.542.542,0,0,0-.744.032l-.634.654-.966.447-.038-.42a2.84,2.84,0,0,0,.033-2.441l-.322-.707-.424-1.926h1.1l.152.8a1.349,1.349,0,0,0-.324.9,1.066,1.066,0,0,0,2.124-.122V8.347a.264.264,0,1,0-.527,0v.244a.539.539,0,0,1-1.074.062,1,1,0,0,1,.277-.589.265.265,0,0,0,.065-.228L56.517,6.7a.264.264,0,0,0-.259-.214h-.426V5.494c.542.063.993.136,1.26.2a.474.474,0,0,1,.372.465V7.292a.264.264,0,1,0,.527,0V6.155a1,1,0,0,0-.784-.98,20.571,20.571,0,0,0-3.562-.354l-.066-.147a2.975,2.975,0,0,0,1-2.139A2.362,2.362,0,0,0,53.433.4a.264.264,0,1,0-.267.454,1.853,1.853,0,0,1,.891,1.677A2.522,2.522,0,0,1,53.1,4.39a.264.264,0,0,0-.084.321L53.147,5l-1.23.89-.223-.327a.264.264,0,0,0-.247-.357c-.852,0-1.478-.054-1.722-.639a2.013,2.013,0,0,0,.795-.277.264.264,0,0,0-.3-.437,1.55,1.55,0,0,1-.607.2q0-.08,0-.166a.264.264,0,0,0-.118-.22c-.189-.126-.234-.224-.232-.258s.058-.118.254-.211a.264.264,0,0,0,.149-.238,2.97,2.97,0,0,1,.406-1.761A1.922,1.922,0,0,1,51.754.527a3.665,3.665,0,0,1,.55.04.264.264,0,1,0,.08-.522A4.193,4.193,0,0,0,51.754,0C49.5,0,49.164,1.551,49.14,2.8a.735.735,0,0,0-.4.57.761.761,0,0,0,.351.65A1.557,1.557,0,0,0,50.5,5.672a11.628,11.628,0,0,0-1.552,1.2l-.662-.448a1.35,1.35,0,0,0-.407-.866A1.066,1.066,0,0,0,46.46,7.149l1.708,1.708A1,1,0,0,0,49.415,9l1.667-1.054.2.484a.264.264,0,0,0,.488-.2l-.318-.774a.264.264,0,0,0-.385-.123l-.508.321-.585-.956a9.235,9.235,0,0,1,1.275-.853l.385.567a.264.264,0,0,0,.373.066l1.556-1.125c.587,0,1.193.04,1.745.09V6.486h-.688a.264.264,0,0,0-.257.32l.5,2.274a.263.263,0,0,0,.018.053l.334.732a2.353,2.353,0,0,1,.164.5H52.65l-.493-1.2a.264.264,0,1,0-.488.2l.517,1.257-1.049,2.3a.264.264,0,1,0,.48.219l.071-.155,1.208.547-.962,1.392-.893-.52.129-.282a.264.264,0,1,0-.48-.219l-.759,1.663H48.041a.541.541,0,0,0-.38.927,5.754,5.754,0,0,0,2.768,1.487.542.542,0,0,0,.123.014Zm.19-1.14-.176.6a.014.014,0,0,1-.017.01,5.3,5.3,0,0,1-2.516-1.349.012.012,0,0,1,0-.016c0-.008.007-.008.013-.008h1.848a1.158,1.158,0,0,0,.852.761Zm.89-1.5-.686.992a.627.627,0,0,1-.573-.486l.447-.98Zm4.33-1.283-.484.345a.621.621,0,0,1-.914-.227l-.2-.394.827-1.026.013.149a.264.264,0,0,0,.371.216Zm1.723-2.311a.016.016,0,0,1,.01,0,7.678,7.678,0,0,1,1.251,2.184.011.011,0,0,1,0,.015.011.011,0,0,1-.015,0l-1.29-.68a1.158,1.158,0,0,0-.4-1.07l.437-.45a.014.014,0,0,1,.01,0Zm-.58,1.5-.7.5-.348-.842.762-.352A.628.628,0,0,1,57.1,13.266ZM55.421,10.9a2.322,2.322,0,0,1-.516,1.4l-.93,1.155-2.069-.936.737-1.614ZM50.111,7.93l-.978.619a.474.474,0,0,1-.592-.066L46.832,6.776a.539.539,0,0,1,.716-.8.987.987,0,0,1,.22.612.264.264,0,0,0,.116.208l.941.636a.264.264,0,0,0,.333-.031s.155-.151.4-.366ZM46.6,15.292a1.987,1.987,0,1,0-.75-3.827.264.264,0,1,0,.2.488,1.46,1.46,0,1,1-.654.529.264.264,0,1,0-.435-.3A1.987,1.987,0,0,0,46.6,15.294ZM52.043,4.259a.806.806,0,0,0,.513-.187,1.085,1.085,0,0,0,.38-.826.785.785,0,0,0-.795-.81.843.843,0,0,0-.392.091A.264.264,0,1,0,51.977,3a.318.318,0,0,1,.163-.04.257.257,0,0,1,.267.283.554.554,0,0,1-.185.417.274.274,0,0,1-.237.063.264.264,0,1,0-.107.516.81.81,0,0,0,.164.017Zm-1.53-1.042a.264.264,0,0,0,.264-.264V2.669a.264.264,0,0,0-.527,0v.284A.264.264,0,0,0,50.513,3.217Z" transform="translate(17388.389 2476)" fill="#3b3b3b"/>
    <path id="Path_652-2" data-name="Path 652" d="M50.551,18a.542.542,0,0,0,.519-.389l.258-.88,2.054-2.971.475.216.233.463a1.148,1.148,0,0,0,1.692.419l1.566-1.116,1.332.7a.541.541,0,0,0,.769-.642,8.031,8.031,0,0,0-1.409-2.424.542.542,0,0,0-.744.032l-.634.654-.966.447-.038-.42a2.84,2.84,0,0,0,.033-2.441l-.322-.707-.424-1.926h1.1l.152.8a1.349,1.349,0,0,0-.324.9,1.066,1.066,0,0,0,2.124-.122V8.347a.264.264,0,1,0-.527,0v.244a.539.539,0,0,1-1.074.062,1,1,0,0,1,.277-.589.265.265,0,0,0,.065-.228L56.517,6.7a.264.264,0,0,0-.259-.214h-.426V5.494c.542.063.993.136,1.26.2a.474.474,0,0,1,.372.465V7.292a.264.264,0,1,0,.527,0V6.155a1,1,0,0,0-.784-.98,20.571,20.571,0,0,0-3.562-.354l-.066-.147a2.975,2.975,0,0,0,1-2.139A2.362,2.362,0,0,0,53.433.4a.264.264,0,1,0-.267.454,1.853,1.853,0,0,1,.891,1.677A2.522,2.522,0,0,1,53.1,4.39a.264.264,0,0,0-.084.321L53.147,5l-1.23.89-.223-.327a.264.264,0,0,0-.247-.357c-.852,0-1.478-.054-1.722-.639a2.013,2.013,0,0,0,.795-.277.264.264,0,0,0-.3-.437,1.55,1.55,0,0,1-.607.2q0-.08,0-.166a.264.264,0,0,0-.118-.22c-.189-.126-.234-.224-.232-.258s.058-.118.254-.211a.264.264,0,0,0,.149-.238,2.97,2.97,0,0,1,.406-1.761A1.922,1.922,0,0,1,51.754.527a3.665,3.665,0,0,1,.55.04.264.264,0,1,0,.08-.522A4.193,4.193,0,0,0,51.754,0C49.5,0,49.164,1.551,49.14,2.8a.735.735,0,0,0-.4.57.761.761,0,0,0,.351.65A1.557,1.557,0,0,0,50.5,5.672a11.628,11.628,0,0,0-1.552,1.2l-.662-.448a1.35,1.35,0,0,0-.407-.866A1.066,1.066,0,0,0,46.46,7.149l1.708,1.708A1,1,0,0,0,49.415,9l1.667-1.054.2.484a.264.264,0,0,0,.488-.2l-.318-.774a.264.264,0,0,0-.385-.123l-.508.321-.585-.956a9.235,9.235,0,0,1,1.275-.853l.385.567a.264.264,0,0,0,.373.066l1.556-1.125c.587,0,1.193.04,1.745.09V6.486h-.688a.264.264,0,0,0-.257.32l.5,2.274a.263.263,0,0,0,.018.053l.334.732a2.353,2.353,0,0,1,.164.5H52.65l-.493-1.2a.264.264,0,1,0-.488.2l.517,1.257-1.049,2.3a.264.264,0,1,0,.48.219l.071-.155,1.208.547-.962,1.392-.893-.52.129-.282a.264.264,0,1,0-.48-.219l-.759,1.663H48.041a.541.541,0,0,0-.38.927,5.754,5.754,0,0,0,2.768,1.487.542.542,0,0,0,.123.014Zm.19-1.14-.176.6a.014.014,0,0,1-.017.01,5.3,5.3,0,0,1-2.516-1.349.012.012,0,0,1,0-.016c0-.008.007-.008.013-.008h1.848a1.158,1.158,0,0,0,.852.761Zm.89-1.5-.686.992a.627.627,0,0,1-.573-.486l.447-.98Zm4.33-1.283-.484.345a.621.621,0,0,1-.914-.227l-.2-.394.827-1.026.013.149a.264.264,0,0,0,.371.216Zm1.723-2.311a.016.016,0,0,1,.01,0,7.678,7.678,0,0,1,1.251,2.184.011.011,0,0,1,0,.015.011.011,0,0,1-.015,0l-1.29-.68a1.158,1.158,0,0,0-.4-1.07l.437-.45a.014.014,0,0,1,.01,0Zm-.58,1.5-.7.5-.348-.842.762-.352A.628.628,0,0,1,57.1,13.266ZM55.421,10.9a2.322,2.322,0,0,1-.516,1.4l-.93,1.155-2.069-.936.737-1.614ZM50.111,7.93l-.978.619a.474.474,0,0,1-.592-.066L46.832,6.776a.539.539,0,0,1,.716-.8.987.987,0,0,1,.22.612.264.264,0,0,0,.116.208l.941.636a.264.264,0,0,0,.333-.031s.155-.151.4-.366ZM46.6,15.292a1.987,1.987,0,1,0-.75-3.827.264.264,0,1,0,.2.488,1.46,1.46,0,1,1-.654.529.264.264,0,1,0-.435-.3A1.987,1.987,0,0,0,46.6,15.294ZM52.043,4.259a.806.806,0,0,0,.513-.187,1.085,1.085,0,0,0,.38-.826.785.785,0,0,0-.795-.81.843.843,0,0,0-.392.091A.264.264,0,1,0,51.977,3a.318.318,0,0,1,.163-.04.257.257,0,0,1,.267.283.554.554,0,0,1-.185.417.274.274,0,0,1-.237.063.264.264,0,1,0-.107.516.81.81,0,0,0,.164.017Zm-1.53-1.042a.264.264,0,0,0,.264-.264V2.669a.264.264,0,0,0-.527,0v.284A.264.264,0,0,0,50.513,3.217Z" transform="translate(17388.389 2448)" fill="#fff"/>
  </g>
</svg>
