<svg id="Icon_ionic-ios-add-circle-outline" data-name="Icon ionic-ios-add-circle-outline" xmlns="http://www.w3.org/2000/svg" width="30" height="30" viewBox="0 0 30 30">
  <path id="Path_648" data-name="Path 648" d="M20.026,14.883h-3.6v-3.6a.773.773,0,0,0-1.546,0v3.6h-3.6a.74.74,0,0,0-.773.773.748.748,0,0,0,.773.773h3.6v3.6a.749.749,0,0,0,.773.773.769.769,0,0,0,.773-.773v-3.6h3.6a.773.773,0,0,0,0-1.546Z" transform="translate(-0.655 -0.655)" fill="#3b3b3b"/>
  <path id="Path_649" data-name="Path 649" d="M18.375,5.394a12.976,12.976,0,1,1-9.18,3.8,12.895,12.895,0,0,1,9.18-3.8m0-2.019a15,15,0,1,0,15,15,15,15,0,0,0-15-15Z" transform="translate(-3.375 -3.375)" fill="#3b3b3b"/>
</svg>
