<svg id="child" xmlns="http://www.w3.org/2000/svg" width="50" height="60.552" viewBox="0 0 50 60.552">
  <path id="Path_647" data-name="Path 647" d="M64.6,60.552a1.824,1.824,0,0,0,1.748-1.31l.867-2.962,6.91-10,1.6.724.783,1.556a3.863,3.863,0,0,0,5.694,1.41l5.265-3.755,4.478,2.361a1.821,1.821,0,0,0,2.586-2.16c-.453-1.434-2.931-6.588-4.737-8.153a1.824,1.824,0,0,0-2.5.106l-2.134,2.2-3.251,1.5-.127-1.413a9.554,9.554,0,0,0,.11-8.211L80.8,30.076,79.373,23.6h3.687l.511,2.684a4.546,4.546,0,0,0-1.092,3.029,3.586,3.586,0,0,0,7.148-.41v-.82a.887.887,0,1,0-1.774,0v.82a1.812,1.812,0,0,1-3.612.207,3.362,3.362,0,0,1,.933-1.981.891.891,0,0,0,.218-.765l-.726-3.816a.887.887,0,0,0-.871-.721H82.361v-3.34c1.824.212,3.34.457,4.239.659a1.6,1.6,0,0,1,1.252,1.565v3.826a.887.887,0,1,0,1.774,0V20.705a3.36,3.36,0,0,0-2.636-3.3,69.2,69.2,0,0,0-11.984-1.19l-.223-.493a10.006,10.006,0,0,0,3.378-7.2,7.944,7.944,0,0,0-3.87-7.171.887.887,0,1,0-.9,1.529,6.233,6.233,0,0,1,3,5.642,8.483,8.483,0,0,1-3.214,6.237.887.887,0,0,0-.283,1.08l.435.963L69.186,19.8l-.747-1.1a.888.888,0,0,0-.83-1.2c-2.866,0-4.973-.183-5.794-2.15a6.77,6.77,0,0,0,2.674-.932.887.887,0,0,0-.994-1.469,5.213,5.213,0,0,1-2.041.66q-.016-.268-.016-.56a.887.887,0,0,0-.4-.739c-.636-.422-.788-.752-.781-.868s.2-.4.853-.712a.887.887,0,0,0,.5-.8c0-2.751.434-4.634,1.365-5.925,1.086-1.5,2.937-2.235,5.659-2.235a12.33,12.33,0,0,1,1.849.133A.887.887,0,1,0,70.757.153,14.1,14.1,0,0,0,68.641,0c-7.564,0-8.711,5.217-8.792,9.406a2.471,2.471,0,0,0-1.356,1.917,2.561,2.561,0,0,0,1.182,2.187c.162,3.9,2.406,5.161,4.738,5.57a39.12,39.12,0,0,0-5.22,4.042l-2.228-1.505a4.546,4.546,0,0,0-1.369-2.912A3.586,3.586,0,0,0,50.83,24.05L56.576,29.8a3.361,3.361,0,0,0,4.195.467l5.609-3.546.67,1.629a.887.887,0,1,0,1.641-.674l-1.071-2.606a.887.887,0,0,0-1.294-.413l-1.709,1.08-1.968-3.214a31.063,31.063,0,0,1,4.289-2.87l1.295,1.908a.887.887,0,0,0,1.254.221l5.233-3.786c1.974.011,4.014.133,5.868.3v3.525H78.269A.887.887,0,0,0,77.4,22.9l1.685,7.65a.883.883,0,0,0,.059.177l1.122,2.463a7.915,7.915,0,0,1,.553,1.694H71.655L70,30.85a.887.887,0,0,0-1.641.674l1.738,4.228-3.53,7.736a.887.887,0,1,0,1.614.736l.239-.523,4.062,1.84-3.237,4.682-3-1.75.433-.949a.887.887,0,1,0-1.614-.736l-2.554,5.6H56.151A1.821,1.821,0,0,0,54.872,55.5a19.356,19.356,0,0,0,9.31,5,1.824,1.824,0,0,0,.414.048Zm.639-3.835-.594,2.026a.049.049,0,0,1-.057.033,17.815,17.815,0,0,1-8.465-4.536.039.039,0,0,1-.012-.053c.012-.029.023-.029.043-.029h6.217a3.894,3.894,0,0,0,2.867,2.559Zm3-5.03-2.307,3.337a2.11,2.11,0,0,1-1.929-1.632l1.5-3.3ZM82.8,47.37l-1.629,1.161a2.089,2.089,0,0,1-3.079-.762l-.667-1.326L80.2,42.989l.045.5a.887.887,0,0,0,1.249.729Zm5.8-7.774a.053.053,0,0,1,.035.013c1.417,1.227,3.766,5.95,4.207,7.347a.038.038,0,0,1-.015.051.037.037,0,0,1-.052.005L88.43,44.726a3.9,3.9,0,0,0-1.342-3.6l1.471-1.517A.046.046,0,0,1,88.592,39.6Zm-1.953,5.033-2.361,1.684-1.171-2.839,2.562-1.184A2.113,2.113,0,0,1,86.639,44.629Zm-5.661-7.972a7.809,7.809,0,0,1-1.736,4.7l-3.13,3.887-6.959-3.152,2.478-5.431ZM63.116,26.681l-3.293,2.082a1.6,1.6,0,0,1-1.993-.222L52.085,22.8a1.812,1.812,0,0,1,2.407-2.7,3.32,3.32,0,0,1,.741,2.059.887.887,0,0,0,.39.7l3.165,2.138a.887.887,0,0,0,1.12-.1c.013-.013.52-.509,1.357-1.23ZM51.3,51.446A6.685,6.685,0,1,0,48.771,38.57a.887.887,0,1,0,.67,1.642,4.913,4.913,0,1,1-2.2,1.779.887.887,0,0,0-1.464-1A6.686,6.686,0,0,0,51.3,51.446Zm18.318-37.12a2.712,2.712,0,0,0,1.724-.63,3.649,3.649,0,0,0,1.278-2.78,2.64,2.64,0,0,0-2.674-2.724,2.837,2.837,0,0,0-1.318.308.887.887,0,0,0,.768,1.6,1.068,1.068,0,0,1,.55-.133.863.863,0,0,1,.9.95,1.862,1.862,0,0,1-.624,1.4.921.921,0,0,1-.8.211.887.887,0,1,0-.359,1.737A2.724,2.724,0,0,0,69.614,14.326Zm-5.148-3.505a.887.887,0,0,0,.887-.887V8.977a.887.887,0,0,0-1.774,0v.957A.887.887,0,0,0,64.466,10.821Z" transform="translate(-44.612 0)" fill="#3b3b3b"/>
</svg>
