<svg id="child" xmlns="http://www.w3.org/2000/svg" width="25.186" height="30.5" viewBox="0 0 25.186 30.5">
  <path id="Path_647" data-name="Path 647" d="M54.677,30.5a.919.919,0,0,0,.88-.66l.437-1.492,3.48-5.035.805.365.394.784a1.946,1.946,0,0,0,2.868.71L66.2,23.282l2.256,1.189a.917.917,0,0,0,1.3-1.088,13.577,13.577,0,0,0-2.386-4.107.919.919,0,0,0-1.261.053l-1.075,1.108-1.638.757-.064-.712a4.812,4.812,0,0,0,.056-4.136l-.546-1.2-.719-3.264h1.857l.257,1.352a2.29,2.29,0,0,0-.55,1.526,1.806,1.806,0,0,0,3.6-.207v-.413a.447.447,0,1,0-.894,0v.413a.913.913,0,0,1-1.819.1,1.694,1.694,0,0,1,.47-1,.449.449,0,0,0,.11-.386l-.366-1.922a.447.447,0,0,0-.439-.363h-.722V9.309c.919.107,1.682.23,2.135.332a.8.8,0,0,1,.631.788v1.927a.447.447,0,1,0,.894,0V10.429a1.692,1.692,0,0,0-1.328-1.66,34.856,34.856,0,0,0-6.036-.6l-.112-.248a5.04,5.04,0,0,0,1.7-3.625A4,4,0,0,0,59.561.685a.447.447,0,1,0-.453.77A3.14,3.14,0,0,1,60.617,4.3,4.273,4.273,0,0,1,59,7.438a.447.447,0,0,0-.143.544l.219.485L56.99,9.975l-.376-.554a.447.447,0,0,0-.418-.6c-1.444,0-2.505-.092-2.919-1.083a3.41,3.41,0,0,0,1.347-.469.447.447,0,0,0-.5-.74,2.626,2.626,0,0,1-1.028.332q-.008-.135-.008-.282a.447.447,0,0,0-.2-.372c-.32-.212-.4-.379-.393-.437s.1-.2.43-.358a.447.447,0,0,0,.253-.4,5.033,5.033,0,0,1,.687-2.984A3.257,3.257,0,0,1,56.715.894a6.211,6.211,0,0,1,.931.067.447.447,0,1,0,.135-.883A7.1,7.1,0,0,0,56.715,0c-3.81,0-4.388,2.628-4.429,4.738A1.245,1.245,0,0,0,51.6,5.7a1.29,1.29,0,0,0,.6,1.1,2.638,2.638,0,0,0,2.387,2.806,19.7,19.7,0,0,0-2.629,2.036l-1.122-.758a2.29,2.29,0,0,0-.69-1.467,1.806,1.806,0,0,0-2.4,2.692l2.894,2.894a1.693,1.693,0,0,0,2.113.235l2.825-1.786.337.82a.447.447,0,0,0,.826-.34l-.54-1.312a.447.447,0,0,0-.652-.208l-.861.544L53.7,11.343A15.646,15.646,0,0,1,55.857,9.9l.652.961a.447.447,0,0,0,.632.111l2.636-1.907c.995.005,2.022.067,2.956.153v1.775H61.565a.447.447,0,0,0-.436.543l.849,3.853a.445.445,0,0,0,.03.089l.565,1.241a3.987,3.987,0,0,1,.278.853H58.233L57.4,15.539a.447.447,0,0,0-.826.34l.875,2.129-1.778,3.9a.447.447,0,1,0,.813.371l.12-.263,2.046.927L57.018,25.3,55.5,24.416l.218-.478a.447.447,0,1,0-.813-.371l-1.286,2.819h-3.2a.917.917,0,0,0-.644,1.571,9.75,9.75,0,0,0,4.689,2.52.919.919,0,0,0,.208.024ZM55,28.568l-.3,1.021a.025.025,0,0,1-.029.017,8.973,8.973,0,0,1-4.264-2.285.02.02,0,0,1-.006-.027c.006-.014.012-.014.022-.014h3.132A1.961,1.961,0,0,0,55,28.568Zm1.509-2.534-1.162,1.681a1.063,1.063,0,0,1-.972-.822l.758-1.661Zm7.337-2.175-.82.585a1.052,1.052,0,0,1-1.551-.384l-.336-.668,1.4-1.74.023.252a.447.447,0,0,0,.629.367Zm2.92-3.916a.027.027,0,0,1,.018.007,13.013,13.013,0,0,1,2.119,3.7.019.019,0,0,1-.007.026.019.019,0,0,1-.026,0l-2.185-1.152a1.963,1.963,0,0,0-.676-1.813l.741-.764A.023.023,0,0,1,66.764,19.945Zm-.984,2.535-1.189.848L64,21.9l1.29-.6A1.064,1.064,0,0,1,65.781,22.48Zm-2.852-4.016a3.933,3.933,0,0,1-.875,2.365l-1.576,1.958L56.973,21.2l1.248-2.736Zm-9-5.025-1.659,1.049a.8.8,0,0,1-1-.112l-2.894-2.894a.913.913,0,0,1,1.213-1.36,1.672,1.672,0,0,1,.373,1.037.447.447,0,0,0,.2.352l1.594,1.077a.447.447,0,0,0,.564-.052c.007-.007.262-.256.684-.619ZM47.979,25.913a3.367,3.367,0,1,0-1.272-6.486.447.447,0,1,0,.338.827,2.474,2.474,0,1,1-1.109.9.447.447,0,0,0-.737-.5,3.368,3.368,0,0,0,2.78,5.267Zm9.227-18.7a1.366,1.366,0,0,0,.869-.317,1.838,1.838,0,0,0,.643-1.4,1.33,1.33,0,0,0-1.347-1.372,1.429,1.429,0,0,0-.664.155.447.447,0,0,0,.387.806.538.538,0,0,1,.277-.067.435.435,0,0,1,.453.479.938.938,0,0,1-.314.707.464.464,0,0,1-.4.107.447.447,0,1,0-.181.875A1.372,1.372,0,0,0,57.205,7.216ZM54.612,5.451A.447.447,0,0,0,55.059,5V4.522a.447.447,0,0,0-.894,0V5A.447.447,0,0,0,54.612,5.451Z" transform="translate(-44.612 0)" fill="#3b3b3b"/>
</svg>
