<svg xmlns="http://www.w3.org/2000/svg" width="60.001" height="60.002" viewBox="0 0 60.001 60.002">
  <g id="Group_6206" data-name="Group 6206" transform="translate(-20049 1176.998)">
    <path id="Path_653" data-name="Path 653" d="M38.177,23.221H27.714V12.758a2.247,2.247,0,1,0-4.494,0V23.221H12.757a2.152,2.152,0,0,0-2.247,2.247,2.175,2.175,0,0,0,2.247,2.247H23.22V38.178a2.176,2.176,0,0,0,2.247,2.247,2.236,2.236,0,0,0,2.247-2.247V27.715H38.177a2.247,2.247,0,1,0,0-4.494Z" transform="translate(20053.533 -1172.467)" fill="#3b3b3b"/>
    <path id="Path_654" data-name="Path 654" d="M33.375,7.414a25.962,25.962,0,1,1-18.361,7.6,25.964,25.964,0,0,1,18.361-7.6m0-4.039a30,30,0,1,0,30,30,30,30,0,0,0-30-30Z" transform="translate(20045.625 -1180.375)" fill="#3b3b3b"/>
  </g>
</svg>
