<svg xmlns="http://www.w3.org/2000/svg" width="82.574" height="100" viewBox="0 0 82.574 100">
  <path id="Path_652" data-name="Path 652" d="M77.615,100A3.012,3.012,0,0,0,80.5,97.837l1.433-4.891L93.345,76.439l2.641,1.2,1.293,2.57a6.38,6.38,0,0,0,9.4,2.328l8.7-6.2,7.4,3.9a3.008,3.008,0,0,0,4.27-3.568C126.3,74.3,122.2,65.784,119.221,63.2a3.013,3.013,0,0,0-4.135.175l-3.524,3.632-5.369,2.482-.21-2.333a15.778,15.778,0,0,0,.182-13.56l-1.789-3.927-2.358-10.7h6.089l.843,4.433c-.752.974-2.037,2.971-1.8,5a5.922,5.922,0,0,0,11.8-.677V46.372a1.465,1.465,0,1,0-2.93,0v1.354a2.992,2.992,0,0,1-5.965.342c-.122-1.063.985-2.664,1.541-3.272a1.472,1.472,0,0,0,.36-1.264l-1.2-6.3a1.465,1.465,0,0,0-1.439-1.191h-2.366V30.521c3.013.35,5.516.754,7,1.088a2.635,2.635,0,0,1,2.068,2.584v6.318a1.465,1.465,0,1,0,2.93,0V34.194a5.549,5.549,0,0,0-4.354-5.442,114.282,114.282,0,0,0-19.791-1.964l-.368-.814c1.8-1.645,5.579-5.821,5.579-11.886,0-5.21-2.27-9.415-6.392-11.843A1.465,1.465,0,1,0,92.14,4.77c3.191,1.879,4.949,5.188,4.949,9.318,0,6.326-5.255,10.261-5.308,10.3a1.465,1.465,0,0,0-.467,1.784l.719,1.59L85.2,32.707,83.963,30.89a1.466,1.466,0,0,0-1.371-1.983c-4.734,0-8.213-.3-9.569-3.551a11.181,11.181,0,0,0,4.416-1.539A1.465,1.465,0,0,0,75.8,21.39a8.609,8.609,0,0,1-3.371,1.09q-.027-.442-.027-.925a1.465,1.465,0,0,0-.655-1.221c-1.05-.7-1.3-1.242-1.289-1.433s.325-.653,1.409-1.175a1.465,1.465,0,0,0,.829-1.32c0-4.544.716-7.653,2.254-9.784C76.742,4.137,79.8,2.93,84.295,2.93a20.364,20.364,0,0,1,3.054.22,1.465,1.465,0,1,0,.442-2.9A23.293,23.293,0,0,0,84.295,0C71.8,0,69.908,8.615,69.774,15.534a4.081,4.081,0,0,0-2.24,3.166,4.229,4.229,0,0,0,1.952,3.612c.268,6.435,3.973,8.522,7.825,9.2a64.6,64.6,0,0,0-8.62,6.675L65.012,35.7c-.157-1.222-.661-3.539-2.262-4.809a5.922,5.922,0,0,0-7.868,8.826l9.489,9.489a5.55,5.55,0,0,0,6.928.771l9.262-5.856,1.106,2.69a1.465,1.465,0,0,0,2.71-1.114l-1.769-4.3a1.465,1.465,0,0,0-2.137-.681L77.648,42.5,74.4,37.19a51.3,51.3,0,0,1,7.083-4.74L83.62,35.6a1.465,1.465,0,0,0,2.071.364l8.642-6.252c3.261.018,6.629.22,9.692.5v5.821H100.2a1.465,1.465,0,0,0-1.43,1.78l2.783,12.634a1.462,1.462,0,0,0,.1.292l1.853,4.068a13.071,13.071,0,0,1,.912,2.8H89.273l-2.738-6.661a1.465,1.465,0,0,0-2.71,1.114l2.87,6.982-5.83,12.776a1.465,1.465,0,1,0,2.665,1.216l.394-.863,6.709,3.039-5.346,7.733-4.96-2.89.715-1.567a1.465,1.465,0,1,0-2.665-1.216L74.16,86.511H63.668a3.007,3.007,0,0,0-2.111,5.149,31.966,31.966,0,0,0,15.375,8.261,3.013,3.013,0,0,0,.683.079Zm1.055-6.333-.98,3.346a.08.08,0,0,1-.095.055,29.421,29.421,0,0,1-13.98-7.492.064.064,0,0,1-.019-.088c.019-.047.038-.047.071-.047H73.936a6.431,6.431,0,0,0,4.734,4.226Zm4.946-8.307-3.81,5.511a3.485,3.485,0,0,1-3.186-2.7l2.484-5.444Zm24.054-7.13-2.69,1.918A3.45,3.45,0,0,1,99.9,78.889l-1.1-2.191,4.593-5.7.075.827a1.465,1.465,0,0,0,2.062,1.2Zm9.573-12.838a.088.088,0,0,1,.058.022c2.34,2.027,6.219,9.827,6.948,12.133a.062.062,0,0,1-.024.085.061.061,0,0,1-.086.009l-7.164-3.778a6.436,6.436,0,0,0-2.217-5.944l2.43-2.5A.076.076,0,0,1,117.244,65.392ZM114.019,73.7l-3.9,2.78L108.186,71.8l4.231-1.956A3.49,3.49,0,0,1,114.019,73.7Zm-9.35-13.166a12.9,12.9,0,0,1-2.868,7.755l-5.169,6.419L85.14,69.507l4.093-8.969Zm-29.5-16.475L69.733,47.5a2.635,2.635,0,0,1-3.291-.366l-9.489-9.489a2.992,2.992,0,0,1,3.976-4.46c.848.673,1.191,2.581,1.224,3.4A1.465,1.465,0,0,0,62.8,37.74l5.227,3.531a1.466,1.466,0,0,0,1.849-.171c.022-.022.859-.841,2.242-2.031Zm-19.52,40.9A11.04,11.04,0,1,0,51.481,63.7a1.465,1.465,0,1,0,1.107,2.712,8.113,8.113,0,1,1-3.635,2.938,1.465,1.465,0,0,0-2.417-1.655,11.041,11.041,0,0,0,9.115,17.27ZM85.9,23.66a4.479,4.479,0,0,0,2.848-1.041,6.026,6.026,0,0,0,2.11-4.591,4.36,4.36,0,0,0-4.416-4.5,4.685,4.685,0,0,0-2.176.508,1.465,1.465,0,0,0,1.268,2.641,1.764,1.764,0,0,1,.908-.22,1.425,1.425,0,0,1,1.486,1.57,3.075,3.075,0,0,1-1.03,2.319,1.521,1.521,0,0,1-1.315.349,1.465,1.465,0,1,0-.593,2.869A4.5,4.5,0,0,0,85.9,23.66Zm-8.5-5.789a1.465,1.465,0,0,0,1.465-1.465v-1.58a1.465,1.465,0,0,0-2.93,0v1.58A1.465,1.465,0,0,0,77.4,17.871Z" transform="translate(-44.611)" fill="#3b3b3b"/>
</svg>
