<svg xmlns="http://www.w3.org/2000/svg" width="49.548" height="60" viewBox="0 0 49.548 60">
  <path id="Path_652" data-name="Path 652" d="M64.413,60a1.807,1.807,0,0,0,1.731-1.3L67,55.768l6.847-9.9,1.585.72.776,1.542a3.828,3.828,0,0,0,5.64,1.4l5.22-3.72,4.44,2.34A1.8,1.8,0,0,0,94.074,46c-.449-1.421-2.909-6.531-4.7-8.081a1.808,1.808,0,0,0-2.481.105L84.782,40.2,81.56,41.693l-.126-1.4a9.467,9.467,0,0,0,.109-8.136L80.47,29.8l-1.415-6.42h3.653l.506,2.66a4.5,4.5,0,0,0-1.08,3,3.553,3.553,0,0,0,7.08-.406v-.812a.879.879,0,1,0-1.758,0v.812a1.8,1.8,0,0,1-3.579.205,3.33,3.33,0,0,1,.925-1.963.883.883,0,0,0,.216-.758l-.72-3.78a.879.879,0,0,0-.863-.715h-1.42V18.313c1.808.21,3.31.452,4.2.653a1.581,1.581,0,0,1,1.241,1.55v3.791a.879.879,0,1,0,1.758,0v-3.79A3.329,3.329,0,0,0,86.6,17.251a68.57,68.57,0,0,0-11.875-1.178l-.221-.488a9.916,9.916,0,0,0,3.347-7.132,7.872,7.872,0,0,0-3.835-7.106.879.879,0,1,0-.89,1.515A6.177,6.177,0,0,1,76.1,8.453a8.407,8.407,0,0,1-3.185,6.18.879.879,0,0,0-.28,1.07l.431.954-4.1,2.967-.742-1.09a.88.88,0,0,0-.823-1.19c-2.84,0-4.928-.18-5.741-2.131a6.708,6.708,0,0,0,2.65-.923.879.879,0,0,0-.983-1.456,5.165,5.165,0,0,1-2.023.654q-.016-.265-.016-.555a.879.879,0,0,0-.393-.733c-.63-.42-.78-.745-.773-.86s.195-.392.845-.7a.879.879,0,0,0,.5-.792c0-2.726.43-4.592,1.352-5.87,1.075-1.491,2.91-2.215,5.607-2.215a12.218,12.218,0,0,1,1.832.132A.88.88,0,0,0,70.519.15a13.975,13.975,0,0,0-2.1-.15c-7.5,0-8.632,5.169-8.713,9.32a2.449,2.449,0,0,0-1.344,1.9,2.537,2.537,0,0,0,1.171,2.167c.161,3.861,2.384,5.113,4.695,5.52a38.761,38.761,0,0,0-5.172,4.005L56.851,21.42a4.5,4.5,0,0,0-1.357-2.885,3.553,3.553,0,0,0-4.721,5.3l5.693,5.693a3.33,3.33,0,0,0,4.157.463l5.557-3.514.664,1.614a.879.879,0,1,0,1.626-.668l-1.061-2.58a.879.879,0,0,0-1.282-.409L64.433,25.5l-1.949-3.186a30.779,30.779,0,0,1,4.25-2.844l1.282,1.89a.879.879,0,0,0,1.243.218l5.185-3.751c1.957.011,3.977.132,5.815.3V21.62h-2.3a.879.879,0,0,0-.858,1.068l1.67,7.58a.877.877,0,0,0,.06.175l1.112,2.441a7.842,7.842,0,0,1,.547,1.68H71.408l-1.643-4a.879.879,0,1,0-1.626.668l1.722,4.189-3.5,7.666a.879.879,0,1,0,1.6.73L68.2,43.3l4.025,1.823-3.208,4.64L66.04,48.032l.429-.94a.879.879,0,1,0-1.6-.73l-2.53,5.545h-6.3A1.8,1.8,0,0,0,54.778,55,19.18,19.18,0,0,0,64,59.953a1.808,1.808,0,0,0,.41.047Zm.633-3.8-.588,2.008a.048.048,0,0,1-.057.033,17.653,17.653,0,0,1-8.388-4.5A.038.038,0,0,1,56,53.693c.011-.028.023-.028.043-.028h6.161a3.859,3.859,0,0,0,2.84,2.536Zm2.968-4.984-2.286,3.307a2.091,2.091,0,0,1-1.912-1.62l1.49-3.266Zm14.432-4.278-1.614,1.151a2.07,2.07,0,0,1-3.048-.755l-.66-1.315L79.88,42.6l.045.5a.879.879,0,0,0,1.237.72Zm5.744-7.7a.053.053,0,0,1,.035.013c1.4,1.216,3.731,5.9,4.169,7.28a.037.037,0,0,1-.014.051.037.037,0,0,1-.052.005l-4.3-2.267a3.862,3.862,0,0,0-1.33-3.566l1.458-1.5a.046.046,0,0,1,.034-.016ZM86.256,44.22l-2.34,1.668-1.16-2.808,2.539-1.174A2.094,2.094,0,0,1,86.256,44.22Zm-5.61-7.9a7.74,7.74,0,0,1-1.721,4.653l-3.1,3.851-6.9-3.121,2.456-5.381Zm-17.7-9.885L59.684,28.5a1.581,1.581,0,0,1-1.975-.22l-5.693-5.693A1.8,1.8,0,0,1,54.4,19.911a3.289,3.289,0,0,1,.734,2.04.879.879,0,0,0,.388.693l3.136,2.119a.88.88,0,0,0,1.109-.1c.013-.013.515-.5,1.345-1.219ZM51.234,50.975a6.624,6.624,0,1,0-2.5-12.755.879.879,0,1,0,.664,1.627,4.868,4.868,0,1,1-2.181,1.763.879.879,0,1,0-1.45-.993,6.625,6.625,0,0,0,5.469,10.362ZM69.384,14.2a2.687,2.687,0,0,0,1.709-.625,3.616,3.616,0,0,0,1.266-2.755,2.616,2.616,0,0,0-2.65-2.7,2.811,2.811,0,0,0-1.306.3.879.879,0,1,0,.761,1.585,1.058,1.058,0,0,1,.545-.132.855.855,0,0,1,.892.942,1.845,1.845,0,0,1-.618,1.391.913.913,0,0,1-.789.209.879.879,0,1,0-.356,1.722,2.7,2.7,0,0,0,.546.057Zm-5.1-3.473a.879.879,0,0,0,.879-.879V8.9a.879.879,0,1,0-1.758,0v.948A.879.879,0,0,0,64.284,10.723Z" transform="translate(-44.61)" fill="#3b3b3b"/>
</svg>
